General
Complete name                            : Furry Vengeance 2007 BRRiP x246 MP4 Esub 250MB - cRcWoRLd.mp4
Format                                   : MPEG-4
Format profile                           : Base Media / Version 2
Codec ID                                 : mp42
File size                                : 260 MiB
Duration                                 : 1h 27mn
Overall bit rate mode                    : Variable
Overall bit rate                         : 417 Kbps

Video
ID                                       : 1
Format                                   : AVC
Format/Info                              : Advanced Video Codec
Format profile                           : Baseline@L3.0
Format settings, CABAC                   : No
Format settings, ReFrames                : 2 frames
Codec ID                                 : avc1
Codec ID/Info                            : Advanced Video Coding
Duration                                 : 1h 27mn
Bit rate mode                            : Variable
Bit rate                                 : 350 Kbps
Width                                    : 640 pixels
Height                                   : 352 pixels
Display aspect ratio                     : 16:9
Frame rate mode                          : Constant
Frame rate                               : 25.000 fps
Color space                              : YUV
Chroma subsampling                       : 4:2:0
Bit depth                                : 8 bits
Scan type                                : Progressive
Bits/(Pixel*Frame)                       : 0.062
Stream size                              : 218 MiB (84%)
Audio
ID                                       : 2
Format                                   : AAC
Format/Info                              : Advanced Audio Codec
Format profile                           : LC
Codec ID                                 : 40
Duration                                 : 1h 27mn
Bit rate mode                            : Variable
Bit rate                                 : 64.2 Kbps
Maximum bit rate                         : 79.0 Kbps
Channel(s)                               : 2 channels
Channel positions                        : Front: L R
Sampling rate                            : 48.0 KHz
Compression mode                         : Lossy
Stream size                              : 40.0 MiB (15%)
Encoded date                             : UTC 2013-02-08 17:23:43
Tagged date                              : UTC 2013-02-08 18:45:17

Text
ID                                       : 3
Format                                   : Timed text
Muxing mode                              : sbtl
Codec ID                                 : tx3g
Duration                                 : 1h 25mn
Bit rate mode                            : Variable
Bit rate                                 : 66 bps
Stream size                              : 41.0 KiB (0%)
Language                                 : English
 
http://img401.imageshack.us/img401/1083/furryvengeance2007brrip.jpg

TRY THE SAMPLE 1st

If You Like This Movie - Please Buy It!

MY RIPS ARE BEST For MP4 Devices like-
SMARTPHONE,IPAD,IPHONE,ANDROID,PSP etc.

I Recommend VLC player for PC

Quality of this movie is according to the rip size.
Plz leave your feed-back at my FB page.
I am alwayes there.

fb . com / CRCWORLDtorrents